<?xml version="1.0" encoding="UTF-8" standalone="no"?>
<!DOCTYPE svg PUBLIC "-//W3C//DTD SVG 1.1//EN" "http://www.w3.org/Graphics/SVG/1.1/DTD/svg11.dtd">
<svg width="100%" height="100%" viewBox="0 0 800 800" version="1.1" xmlns="http://www.w3.org/2000/svg" xmlns:xlink="http://www.w3.org/1999/xlink" xml:space="preserve" xmlns:serif="http://www.serif.com/" style="fill-rule:evenodd;clip-rule:evenodd;stroke-linejoin:round;stroke-miterlimit:2;">
    <g>
        <path d="M568.8,554.742C562.766,552.483 556.188,549.373 549.503,545.689L437.675,700.275L429.722,599.003L370.295,599.003L362.341,700.275L250.514,545.689C243.627,549.542 236.989,552.7 231.2,554.742C172.641,575.356 28.78,634.642 38.064,745.695C40.292,772.345 186.847,800 400.009,800C613.155,800 759.709,772.345 761.938,745.695C771.223,634.534 626.989,576.502 568.8,554.742Z" style="fill:rgb(135,135,135);fill-rule:nonzero;"/>
        <path d="M267.97,325.423C276.111,371.542 289.792,412.227 307.805,432.267L307.805,487.872C307.805,489.281 307.558,490.766 307.155,492.298L370.295,522.708L370.295,567.309L429.722,567.309L429.722,522.708L492.831,492.314C492.428,490.781 492.181,489.295 492.181,487.872L492.181,432.267C510.225,412.227 523.906,371.542 532.047,325.423C551.02,318.645 561.884,307.797 575.425,260.333C589.848,209.773 553.744,211.492 553.744,211.492C582.947,114.816 544.491,23.958 480.113,30.628C435.697,-47.075 286.945,48.378 240.3,41.725C240.3,68.373 251.413,88.353 251.413,88.353C235.195,119.119 241.447,180.464 246.028,211.492C243.366,211.445 210.712,211.786 224.578,260.333C238.133,307.797 248.966,318.647 267.97,325.423Z" style="fill:white;fill-rule:nonzero;"/>
    </g>
</svg>
